<svg width="25" height="22" viewBox="0 0 25 22" fill="none" xmlns="http://www.w3.org/2000/svg">
<rect x="0.5" y="0.5" width="24" height="21" rx="5.5" stroke="#777777"/>
<path d="M11.368 6.636V15H10.276V11.208H6.016V15H4.924V6.636H6.016V10.308H10.276V6.636H11.368ZM15.8366 6.636C16.7486 6.636 17.5366 6.808 18.2006 7.152C18.8726 7.488 19.3846 7.972 19.7366 8.604C20.0966 9.236 20.2766 9.98 20.2766 10.836C20.2766 11.692 20.0966 12.436 19.7366 13.068C19.3846 13.692 18.8726 14.172 18.2006 14.508C17.5366 14.836 16.7486 15 15.8366 15H13.2326V6.636H15.8366ZM15.8366 14.1C16.9166 14.1 17.7406 13.816 18.3086 13.248C18.8766 12.672 19.1606 11.868 19.1606 10.836C19.1606 9.796 18.8726 8.984 18.2966 8.4C17.7286 7.816 16.9086 7.524 15.8366 7.524H14.3246V14.1H15.8366Z" fill="#777777"/>
</svg>
